<svg xmlns="http://www.w3.org/2000/svg" viewBox="0 0 496 512" fill="white">
  <path d="M165.9 397.4c0 2-2.3 4.3-4.9 3.9-15.8-3.4-32.3-5.2-49.5-5.2s-33.6 1.8-49.5 5.2c-2.6.4-4.9-1.9-4.9-3.9 0-17 0-33.9 0-50.9 0-10.2 6.6-19.5 16.2-22.8 21.3-7.5 43.6-11.5 66.2-11.5s44.9 4 66.2 11.5c9.6 3.3 16.2 12.6 16.2 22.8v50.9zM248 8C111 8 0 119 0 256c0 110.3 71.3 203.9 170.5 237.2 12.5 2.3 17.1-5.4 17.1-12.1 0-6-.2-21.9-.3-43-69.4 15.1-84-33.5-84-33.5-11.4-28.9-27.9-36.6-27.9-36.6-22.8-15.6 1.7-15.3 1.7-15.3 25.2 1.8 38.4 25.9 38.4 25.9 22.4 38.3 58.8 27.3 73.2 20.9 2.3-16.2 8.8-27.3 16-33.6C121 402.6 73.6 379.8 73.6 284.4c0-27.4 9.8-49.9 25.8-67.5-2.6-6.3-11.2-31.8 2.5-66.3 0 0 21.1-6.8 69.2 25.7 20-5.6 41.4-8.4 62.7-8.5 21.3.1 42.7 2.9 62.7 8.5 48.1-32.6 69.2-25.7 69.2-25.7 13.8 34.5 5.1 60 2.5 66.3 16 17.6 25.8 40.1 25.8 67.5 0 95.6-47.4 118.2-92.5 124.4 9.1 7.8 17.2 23.1 17.2 46.6 0 33.6-.3 60.7-.3 68.9 0 6.7 4.6 14.5 17.2 12.1C424.7 459.9 496 366.3 496 256 496 119 385 8 248 8z"></path>
</svg>
